<svg xmlns="http://www.w3.org/2000/svg" width="21.749" height="21.749" viewBox="0 0 21.749 21.749">
  <g id="Icon_feather-instagram" data-name="Icon feather-instagram" transform="translate(-2 -2)">
    <path id="Path_8" data-name="Path 8" d="M7.937,3h9.874a4.937,4.937,0,0,1,4.937,4.937v9.874a4.937,4.937,0,0,1-4.937,4.937H7.937A4.937,4.937,0,0,1,3,17.811V7.937A4.937,4.937,0,0,1,7.937,3Z" fill="none" stroke="#000" stroke-linecap="round" stroke-linejoin="round" stroke-width="2"/>
    <path id="Path_9" data-name="Path 9" d="M19.922,15.305a3.95,3.95,0,1,1-3.328-3.328A3.95,3.95,0,0,1,19.922,15.305Z" transform="translate(-3.098 -3.053)" fill="none" stroke="#000" stroke-linecap="round" stroke-linejoin="round" stroke-width="2"/>
    <path id="Path_10" data-name="Path 10" d="M26.25,9.75h0" transform="translate(-7.945 -2.307)" fill="none" stroke="#000" stroke-linecap="round" stroke-linejoin="round" stroke-width="2"/>
  </g>
</svg>
