<svg xmlns="http://www.w3.org/2000/svg" width="25.057" height="20.351" viewBox="0 0 25.057 20.351">
  <path id="Icon_awesome-twitter" data-name="Icon awesome-twitter" d="M22.482,8.453c.016.223.016.445.016.668A14.511,14.511,0,0,1,7.886,23.732,14.512,14.512,0,0,1,0,21.427a10.624,10.624,0,0,0,1.24.064A10.285,10.285,0,0,0,7.616,19.3a5.145,5.145,0,0,1-4.8-3.561,6.476,6.476,0,0,0,.97.079,5.432,5.432,0,0,0,1.351-.175A5.136,5.136,0,0,1,1.018,10.6v-.064a5.172,5.172,0,0,0,2.321.652,5.143,5.143,0,0,1-1.59-6.869A14.6,14.6,0,0,0,12.338,9.693a5.8,5.8,0,0,1-.127-1.177A5.14,5.14,0,0,1,21.1,5a10.111,10.111,0,0,0,3.259-1.24A5.122,5.122,0,0,1,22.1,6.592,10.3,10.3,0,0,0,25.057,5.8a11.039,11.039,0,0,1-2.576,2.655Z" transform="translate(0 -3.381)"/>
</svg>
